<svg xmlns="http://www.w3.org/2000/svg" viewBox="0 0 512 512" width="512" height="512">
<g transform="translate(0.000000,512.000000) scale(0.100000,-0.100000)"
fill="#000000" stroke="none">
<path d="M3345 5097 c-59 -15 -84 -28 -106 -54 -14 -16 -21 -149 -55 -997 -37
-957 -39 -979 -59 -987 -25 -11 -636 -142 -639 -137 -2 2 -18 399 -35 882 -18
484 -35 885 -38 892 -3 8 -30 26 -61 41 -55 27 -62 28 -217 28 -147 0 -164 -2
-212 -24 -29 -13 -57 -29 -63 -36 -7 -8 -23 -345 -45 -931 -19 -506 -36 -939
-37 -964 l-3 -45 -885 -190 -885 -191 -3 -1131 -2 -1130 132 -7 c73 -3 906
-29 1851 -58 l1719 -52 661 53 c364 28 683 55 710 58 l47 6 0 1131 0 1131
-591 330 c-325 182 -598 335 -605 340 -12 8 -22 192 -54 994 -25 607 -44 989
-50 996 -6 7 -34 23 -63 36 -46 20 -70 23 -207 26 -102 1 -172 -2 -205 -10z"/>
</g>
<g transform="translate(0.000000,512.000000) scale(0.100000,-0.100000)"
fill="#F8AC3E" stroke="none">
<path d="M2800 2414 c-121 -32 -215 -116 -262 -231 l-23 -58 -3 -787 -3 -788
103 0 c57 0 214 3 351 7 l247 6 -2 831 -3 831 -31 66 c-33 70 -73 107 -133
128 -47 15 -174 13 -241 -5z M1675 2216 c-107 -34 -173 -88 -214 -176 l-26
-55 -3 -722 -3 -723 296 0 296 0 -3 768 -3 767 -30 54 c-42 76 -91 101 -194
100 -42 0 -94 -6 -116 -13z M675 2046 c-106 -34 -181 -98 -203 -175 -9 -27
-12 -226 -12 -696 l0 -658 122 6 c66 4 186 7 265 7 l143 0 0 698 0 698 -22 44
c-36 70 -65 85 -166 87 -51 2 -103 -3 -127 -11z"/>
</g>
</svg>
